<svg width="41" height="59" viewBox="0 0 41 59" fill="none" xmlns="http://www.w3.org/2000/svg">
<path d="M0 11.0386C0 4.94214 4.93996 0 11.0338 0H29.9662C36.06 0 41 4.94214 41 11.0386C41 14.8989 39.0193 18.2965 36.0191 20.2694C39.0193 22.2424 41 25.6399 41 29.5002C41 35.5967 36.06 40.5389 29.9662 40.5389H29.7267C26.8699 40.5389 24.2666 39.4527 22.3071 37.6706V47.8415C22.3071 54.0192 17.238 59 11.0932 59C5.01464 59 0 54.0729 0 47.9614C0 44.1012 1.98052 40.7039 4.98044 38.7309C1.98052 36.7578 0 33.3604 0 29.5002C0 25.6399 1.98069 22.2424 4.98082 20.2694C1.98069 18.2965 0 14.8989 0 11.0386ZM18.6929 22.0774H11.0338C6.93602 22.0774 3.6142 25.4008 3.6142 29.5002C3.6142 33.5839 6.91041 36.8974 10.9863 36.9229C11.0021 36.9228 11.0179 36.9228 11.0338 36.9228H18.6929V22.0774ZM22.3071 29.5002C22.3071 33.5997 25.6289 36.923 29.7267 36.923H29.9662C34.064 36.923 37.3858 33.5997 37.3858 29.5002C37.3858 25.4008 34.064 22.0774 29.9662 22.0774H29.7267C25.6289 22.0774 22.3071 25.4008 22.3071 29.5002ZM11.0338 40.5389C11.0179 40.5389 11.0021 40.5388 10.9863 40.5388C6.91041 40.5642 3.6142 43.8777 3.6142 47.9614C3.6142 52.0458 6.9804 55.3842 11.0932 55.3842C15.2723 55.3842 18.6929 51.9921 18.6929 47.8415V40.5389H11.0338ZM11.0338 3.6158C6.93602 3.6158 3.6142 6.9391 3.6142 11.0386C3.6142 15.1381 6.93602 18.4614 11.0338 18.4614H18.6929V3.6158H11.0338ZM22.3071 18.4614H29.9662C34.064 18.4614 37.3858 15.1381 37.3858 11.0386C37.3858 6.9391 34.064 3.6158 29.9662 3.6158H22.3071V18.4614Z" fill="#FB096F"/>
</svg>
