<svg width="165" height="165" viewBox="0 0 165 165" fill="none" xmlns="http://www.w3.org/2000/svg">
<path d="M27.5 127.187L79.8669 28.9983C80.9703 26.9289 83.9541 26.9667 85.0025 29.067L103.125 65.312L27.5 127.187Z" fill="#FF8F00"/>
<path d="M27.5 127.159L46.5644 9.60008C47.0628 6.52352 51.1947 5.85665 52.6384 8.6204L89.375 79.0341L27.5 127.159Z" fill="#FFA000"/>
<path d="M27.5273 127.139L28.2148 126.599L88.4708 77.3023L71.4758 44.7285L27.5273 127.139Z" fill="#FF6F00"/>
<path d="M27.5 127.187L119.164 38.7982C121.086 36.9454 124.293 38.0386 124.685 40.6786L137.5 127.187L85.9375 157.241C83.8441 158.416 81.29 158.416 79.1966 157.241L27.5 127.187Z" fill="#FFC400"/>
</svg>
