<svg width="33" height="73" viewBox="0 0 33 73" fill="none" xmlns="http://www.w3.org/2000/svg">
<path d="M28.1611 55.7615L26.1506 59.2692L25.4947 70.7047C25.4947 71.9737 21.4595 73.0004 16.4974 73.0004C11.5354 73.0004 7.50013 71.9737 7.50013 70.7047L6.67312 59.3832L4.54856 55.7615C10.4232 58.2283 22.5146 58.1427 28.1611 55.7615ZM0.213882 19.644L2.15308 37.5387C2.99435 34.687 5.11891 30.8371 7.8566 29.6679C8.7549 29.2829 9.66746 29.2829 10.523 29.7962C11.2644 30.224 11.8918 31.1223 11.9631 31.4788C12.1342 32.4056 11.678 32.7763 11.3215 32.7763C10.8937 32.7763 10.5658 32.1204 10.3519 31.7354C9.76727 30.6945 8.88323 30.6518 7.94215 31.3362C6.95829 32.0491 6.10276 33.2469 5.50389 34.2877C4.7767 35.5425 4.16357 36.9256 3.79284 38.3087C3.57896 39.1072 3.37933 40.3905 3.70729 41.1462C3.84987 41.4599 4.06376 41.6595 4.40597 41.6595C5.11891 41.6595 6.1598 40.7185 6.65886 40.2194C7.3005 39.5778 8.12751 38.5796 8.44121 37.938L9.18266 35.7279C9.55339 34.7583 10.5943 34.9294 10.5943 35.7279C10.5943 37.1823 10.0667 37.6671 9.1684 40.6757C8.34139 43.4561 8.08474 44.3545 8.08474 44.3545C7.98492 44.7537 7.59994 45.4239 7.18643 45.4239C7.01533 45.4239 6.887 45.3668 6.8157 45.2528C6.67312 45.0531 6.68737 44.497 6.70163 44.3545C6.73015 43.8982 7.59994 41.189 7.74253 40.7612C7.45735 41.0749 7.15792 41.3886 6.82996 41.7023C6.05999 42.4295 4.81947 43.3849 3.76432 43.3849C3.27952 43.3849 2.96583 43.2565 2.66639 43.0426L3.75006 54.3926C4.03524 55.1056 9.33951 56.8309 16.3263 56.8309C23.3274 56.8309 28.6317 55.0913 28.9026 54.3926L30.4568 40.9038C29.644 41.6453 28.703 42.5578 27.6621 43.0141C26.8921 43.3421 25.181 43.556 25.181 42.2014C25.181 41.4599 26.4786 40.0911 27.2343 39.1357C27.4339 38.8933 27.9045 38.2945 27.9045 37.9808C27.9045 37.5673 27.0489 37.6671 26.2362 38.3372C25.7799 38.7222 25.3521 39.2355 24.9957 39.7203C24.3825 40.5759 24.0546 41.3173 23.7837 41.9305C22.8996 43.9552 23.1991 43.1567 22.4861 45.0674C21.7732 46.9638 21.8872 46.7499 21.7447 47.0636C21.6163 47.3345 21.431 47.5627 21.1743 47.7053C20.9034 47.8479 20.5327 47.8336 20.3045 47.6625C20.1762 47.5769 20.1192 47.3916 20.1192 47.1349C20.1192 47.0066 20.1334 46.8783 20.1619 46.7499C20.3758 45.8801 21.2741 44.1691 22.3008 41.8592C22.5289 41.3316 22.4433 41.4884 22.4148 41.5312C21.5308 42.3867 20.8606 42.8002 20.3616 43.0284C19.5345 43.3991 18.5079 43.3991 18.294 42.4438C18.2798 42.3867 18.2798 42.3297 18.2655 42.2727C16.583 43.5845 14.8006 43.9409 15.4138 41.1177C14.7579 42.2869 13.6171 43.2423 12.2198 43.2423C11.6352 43.2423 11.2074 43.0426 10.9935 42.5151C10.6656 41.7308 11.1789 40.3905 11.6494 39.1215C11.8918 38.4798 12.2198 37.7099 12.6618 36.8116C12.8899 36.3268 13.2607 36.0416 13.7455 36.1699C13.831 36.1984 13.9023 36.2269 13.9736 36.2697C14.3443 36.5264 14.2018 36.9114 14.0164 37.2964C13.4746 38.3658 13.004 39.15 12.6903 40.2622C12.562 40.7327 12.4052 41.5455 12.9042 41.5455C13.2464 41.5455 13.5744 41.4314 13.8881 41.2033C14.544 40.7185 15.0715 39.9913 15.4708 39.2783C15.756 38.765 16.0982 38.0948 16.2693 37.5245C16.3406 37.2821 16.4261 37.054 16.5259 36.8401C16.6828 36.4836 16.8967 36.1129 17.2674 36.1129C17.4528 36.1129 17.6096 36.1842 17.7237 36.3268C17.9661 36.6404 17.909 36.9684 17.7807 37.3106C17.4955 38.1091 17.1106 38.822 16.7969 39.6918C16.6115 40.1909 16.4119 40.8325 16.4119 41.3601C16.4119 41.8449 16.9394 41.7308 17.3815 41.5312C17.7237 41.3744 18.0659 41.132 18.3511 40.8896C18.5222 40.1909 18.4794 40.3477 22.1154 31.1651C22.3008 30.6945 22.643 30.4949 22.9852 30.4949C23.1563 30.4949 23.2989 30.5519 23.4415 30.6518C23.6839 30.8371 23.6839 31.2364 23.584 31.5358C23.4842 31.8067 23.4985 31.7212 22.9424 33.033C22.2009 34.7583 21.7161 35.9988 21.0602 37.5815C20.7893 38.2374 19.9623 40.2764 19.8197 40.7612C19.7342 41.0749 19.6344 41.5882 19.9623 41.5882C20.7323 41.5882 22.7143 39.7203 23.2561 39.1643C23.2846 39.1215 23.3274 39.1072 23.3844 39.0787C23.47 38.8078 23.5555 38.5511 23.6268 38.2945C23.8264 37.7526 24.0118 37.1252 24.3825 36.6832C24.4966 36.5406 24.6249 36.4551 24.7675 36.4551C25.1668 36.4551 25.3664 36.6262 25.3664 37.0254C25.3664 37.1823 25.2666 37.7526 25.2095 37.9095C25.4092 37.6956 25.6231 37.4817 25.8512 37.2678C27.99 35.2859 29.5157 36.2982 29.5157 37.2964C29.5157 38.3515 28.2467 39.8202 27.548 40.6329C27.3198 40.9038 26.8493 41.4029 26.8351 41.5455C26.8351 41.7308 26.9634 41.8021 27.1487 41.8021C27.4339 41.8021 28.0613 41.3031 28.2894 41.132C29.0024 40.5759 29.972 39.7203 30.6564 39.1215L32.7667 19.6154C28.4178 22.0537 4.59133 22.068 0.213882 19.644ZM32.9663 18.432C32.9663 21.4263 0 21.4263 0 18.432C0 17.1772 7.38606 16.1648 16.4832 16.1648C17.7665 16.1648 19.0212 16.1791 20.2332 16.2219L22.0298 9.27782L30.7705 0.0808975C30.9701 -0.118726 31.5975 0.0523799 32.1821 0.579955C32.7667 1.10753 33.1232 1.7064 32.9378 1.90602L32.9236 1.92028L24.7533 10.5469L23.3274 16.3502C29.0166 16.7209 32.9663 17.5051 32.9663 18.432ZM23.0707 19.0879C23.0707 18.9738 22.9424 18.874 22.7143 18.7884L22.6857 18.9025C22.6857 19.0879 21.9728 19.2447 21.103 19.2447C20.2332 19.2447 19.5203 19.0879 19.5203 18.9025C19.5203 18.8882 19.5203 18.874 19.5345 18.8597L19.5631 18.7599C19.3064 18.8455 19.1353 18.9595 19.1353 19.0879C19.1353 19.3873 20.0193 19.6154 21.0888 19.6154C22.1867 19.6297 23.0707 19.3873 23.0707 19.0879Z" fill="#990D0D"/>
</svg>
