<svg width="66" height="74" viewBox="0 0 66 74" fill="none" xmlns="http://www.w3.org/2000/svg">
<path d="M32.7894 74C31.8055 74 30.807 73.7357 29.9407 73.2364L20.8806 67.8768C19.5297 67.1132 20.1905 66.8489 20.631 66.702C22.4371 66.0706 22.8042 65.9385 24.7279 64.8372C24.9334 64.7197 25.1977 64.7638 25.4033 64.8959L32.3635 69.0221C32.6132 69.169 32.9656 69.169 33.2005 69.0221L60.3219 53.369C60.5715 53.2221 60.733 52.9285 60.733 52.6348V21.3285C60.733 21.0201 60.5715 20.7411 60.3072 20.5796L33.2005 4.94116C32.9509 4.79432 32.6132 4.79432 32.3635 4.94116L5.27155 20.5943C5.00724 20.7411 4.84572 21.0348 4.84572 21.3432V52.6348C4.84572 52.9285 5.00724 53.2221 5.27155 53.3543L12.7017 57.642C16.7398 59.6537 19.2067 57.2896 19.2067 54.8961V24.001C19.2067 23.5605 19.5591 23.2227 19.9996 23.2227H23.4357C23.8615 23.2227 24.2286 23.5605 24.2286 24.001V54.9108C24.2286 60.2851 21.2918 63.3688 16.1964 63.3688C14.6253 63.3688 13.3918 63.3688 9.95575 61.6654L2.8487 57.5686C1.08662 56.5554 0 54.6612 0 52.6201V21.3285C0 19.3021 1.08662 17.3932 2.8487 16.38L29.9407 0.726858C31.6587 -0.242286 33.9347 -0.242286 35.6381 0.726858L62.7594 16.3947C64.5215 17.4079 65.6081 19.3021 65.6081 21.3432V52.6348C65.6081 54.6612 64.5215 56.5554 62.7594 57.5833L35.6381 73.2364C34.7717 73.7357 33.7879 74 32.7894 74ZM54.6832 43.1489C54.6832 37.29 50.7185 35.7335 42.3927 34.6322C33.9641 33.5162 33.1124 32.9435 33.1124 30.9759C33.1124 29.346 33.8319 27.1727 40.0726 27.1727C45.6379 27.1727 47.6936 28.3768 48.5453 32.1359C48.6187 32.4883 48.9418 32.7527 49.3089 32.7527H52.833C53.0533 32.7527 53.2589 32.6645 53.4057 32.503C53.5525 32.3415 53.626 32.1212 53.6113 31.901C53.068 25.4253 48.7656 22.4151 40.0726 22.4151C32.3342 22.4151 27.7234 25.675 27.7234 31.1521C27.7234 37.0844 32.3195 38.729 39.7349 39.4632C48.6187 40.3296 49.3089 41.6365 49.3089 43.3839C49.3089 46.4088 46.8713 47.701 41.1592 47.701C33.9788 47.701 32.4076 45.8948 31.879 42.3266C31.8202 41.9448 31.4972 41.6658 31.1007 41.6658H27.5912C27.1507 41.6658 26.813 42.0183 26.813 42.4441C26.813 47.0108 29.2946 52.4586 41.1739 52.4586C49.7494 52.4439 54.6832 49.0519 54.6832 43.1489Z" fill="#C4C80D"/>
</svg>
