<svg width="110" height="58" viewBox="0 0 110 58" fill="none" xmlns="http://www.w3.org/2000/svg">
<path d="M55 2.8875C84.4594 2.8875 107.113 15.2969 107.113 28.9266C107.113 42.5563 84.4422 54.9656 55 54.9656C25.5406 54.9656 2.8875 42.5563 2.8875 28.9266C2.8875 15.2969 25.5578 2.8875 55 2.8875ZM55 0C24.6297 0 0 12.9422 0 28.9266C0 44.9109 24.6297 57.8531 55 57.8531C85.3703 57.8531 110 44.9109 110 28.9266C110 12.9422 85.3703 0 55 0ZM37.5031 26.6063C36.1453 33.5672 31.35 32.8453 25.4547 32.8453L27.8094 20.7109C34.3406 20.7109 38.775 20.0063 37.5031 26.6063ZM16.7406 45.1344H23.0484L24.5438 37.4344C31.6078 37.4344 35.9906 37.95 40.0469 34.1516C44.5328 30.0266 45.7016 22.6875 42.5047 19.0094C40.8375 17.0844 38.1562 16.1391 34.5125 16.1391H22.3609L16.7406 45.1344ZM48.6578 8.42188H54.9313L53.4359 16.1219C58.85 16.1219 63.8688 15.7266 66.2922 17.9609C68.8359 20.2984 67.6156 23.2891 64.8656 37.4H58.5062C61.1531 23.7531 61.6516 22.6188 60.6891 21.5875C59.7609 20.5906 57.6469 20.7969 52.5422 20.7969L49.3109 37.4H43.0375L48.6578 8.42188ZM86.7969 26.6063C85.4219 33.6703 80.4891 32.8453 74.7484 32.8453L77.1031 20.7109C83.6688 20.7109 88.0687 20.0063 86.7969 26.6063ZM66.0344 45.1344H72.3594L73.8547 37.4344C81.2797 37.4344 85.3875 37.8641 89.3578 34.1516C93.8438 30.0266 95.0125 22.6875 91.8156 19.0094C90.1484 17.0844 87.4672 16.1391 83.8234 16.1391H71.6719L66.0344 45.1344Z" fill="#810C94"/>
</svg>
