<svg width="91" height="88" viewBox="0 0 91 88" fill="none" xmlns="http://www.w3.org/2000/svg">
<g clip-path="url(#clip0_130_18)">
<path d="M74.8862 0H16.1138C7.21441 0 0 7.15541 0 15.982V72.018C0 80.8446 7.21441 88 16.1138 88H74.8862C83.7856 88 91 80.8446 91 72.018V15.982C91 7.15541 83.7856 0 74.8862 0Z" fill="#001E36"/>
<path d="M20.4922 61.7115V23.0209C20.4922 22.7405 20.6131 22.5977 20.8585 22.5977C21.5075 22.5977 22.1032 22.5977 22.9923 22.5677C23.8814 22.5377 24.8541 22.5271 25.8925 22.5077L29.1893 22.446C30.3486 22.426 31.4979 22.416 32.6371 22.416C35.73 22.416 38.338 22.7993 40.4611 23.5659C42.3698 24.2076 44.1106 25.2625 45.5574 26.654C46.7842 27.8609 47.7319 29.3177 48.3349 30.9238C48.9054 32.4876 49.1937 34.1389 49.1866 35.802C49.1866 39.033 48.4339 41.6972 46.9284 43.7948C45.4122 45.9014 43.2818 47.4967 40.8239 48.3661C38.2597 49.3149 35.4093 49.6359 32.2762 49.6359C31.3871 49.6359 30.7505 49.6271 30.3842 49.6059C30.0179 49.5848 29.4684 49.576 28.7358 49.576V61.6551C28.7451 61.7178 28.7418 61.7817 28.726 61.8431C28.7103 61.9045 28.6824 61.9622 28.6441 62.0128C28.6057 62.0635 28.5576 62.1062 28.5026 62.1383C28.4475 62.1704 28.3866 62.1914 28.3233 62.2C28.2779 62.2071 28.2317 62.2071 28.1864 62.2H20.919C20.6273 62.1948 20.4922 62.0343 20.4922 61.7115ZM28.7358 29.8638V42.4826C29.2645 42.5238 29.7529 42.5438 30.201 42.5426H32.2157C33.6982 42.5376 35.1708 42.3043 36.5811 41.8513C37.7901 41.4965 38.8708 40.8048 39.6947 39.8583C40.4878 38.9307 40.8843 37.6373 40.8843 35.9784C40.9151 34.807 40.6065 33.6514 39.9952 32.6486C39.3546 31.6787 38.4282 30.928 37.3422 30.4987C35.9265 29.9534 34.4147 29.6961 32.8968 29.7421C31.9188 29.7421 31.054 29.7521 30.3024 29.7721C29.5508 29.7921 29.0316 29.8227 28.7447 29.8638H28.7358Z" fill="#31A8FF"/>
<path d="M72.79 40.188C71.6428 39.6027 70.4206 39.1749 69.1571 38.9164C67.7654 38.5992 66.3424 38.4365 64.9144 38.4314C64.1422 38.411 63.3711 38.5031 62.6259 38.7048C62.151 38.8091 61.7288 39.0772 61.4345 39.4614C61.2356 39.7687 61.1301 40.1262 61.1305 40.4913C61.1412 40.8454 61.2701 41.1859 61.4968 41.4596C61.8531 41.8734 62.2889 42.2127 62.7788 42.4578C63.6487 42.9211 64.5453 43.3333 65.4639 43.6923C67.5127 44.373 69.4706 45.298 71.2945 46.4471C72.5358 47.2255 73.5634 48.2968 74.2854 49.5652C74.8938 50.7682 75.1989 52.0996 75.1745 53.4452C75.2105 55.2198 74.6993 56.963 73.7093 58.4416C72.6486 59.9414 71.176 61.1075 69.4665 61.8013C67.6101 62.6102 65.3187 63.0147 62.5921 63.0147C60.8609 63.0307 59.1327 62.8681 57.4354 62.5297C56.0977 62.2864 54.7956 61.8795 53.559 61.3181C53.4252 61.25 53.3138 61.1455 53.2379 61.0167C53.162 60.888 53.1247 60.7405 53.1304 60.5915V54.0537C53.1227 53.9896 53.1329 53.9246 53.1599 53.8658C53.1868 53.807 53.2295 53.7567 53.2834 53.7204C53.3358 53.6907 53.3961 53.6777 53.4561 53.683C53.5162 53.6884 53.5732 53.7119 53.6194 53.7503C55.0813 54.6051 56.6687 55.2281 58.3245 55.5969C59.7828 55.9599 61.2789 56.1528 62.7824 56.1718C64.2049 56.1718 65.2529 55.9902 65.9262 55.6268C66.2293 55.4891 66.4857 55.2673 66.6643 54.9881C66.8429 54.7089 66.9361 54.3843 66.9326 54.0537C66.9326 53.5281 66.6274 53.0231 66.0169 52.5387C65.4064 52.0543 64.164 51.4723 62.2898 50.7927C60.3731 50.1312 58.5558 49.2145 56.8877 48.0679C55.6947 47.246 54.7119 46.1589 54.0177 44.8934C53.4161 43.7006 53.1112 42.3823 53.1287 41.0487C53.1234 39.4422 53.5679 37.8657 54.4125 36.4949C55.3721 34.9889 56.7505 33.7903 58.3814 33.0435C60.1714 32.1558 62.4096 31.712 65.0958 31.712C66.6693 31.6989 68.2414 31.8097 69.7973 32.0435C70.9235 32.1872 72.0245 32.4839 73.0691 32.9254C73.1521 32.949 73.2283 32.9914 73.2919 33.0492C73.3555 33.1071 73.4046 33.1788 73.4354 33.2587C73.4768 33.4062 73.4972 33.5588 73.4959 33.7119V39.8282C73.5008 39.8989 73.487 39.9696 73.4558 40.0334C73.4246 40.0971 73.3771 40.1516 73.3181 40.1915C73.2358 40.2315 73.1452 40.252 73.0536 40.2514C72.962 40.2508 72.8717 40.2291 72.79 40.188Z" fill="#31A8FF"/>
</g>
<defs>
<clipPath id="clip0_130_18">
<rect width="91" height="88" fill="white"/>
</clipPath>
</defs>
</svg>
