<svg width="56" height="50" viewBox="0 0 56 50" fill="none" xmlns="http://www.w3.org/2000/svg">
<path d="M45.7406 15.9403C45.15 15.7427 44.5594 15.5561 43.9688 15.3804C44.0672 14.9742 44.1547 14.5679 44.2422 14.1617C45.5875 7.61815 44.7016 2.35914 41.7156 0.624438C38.8391 -1.03341 34.1469 0.690313 29.4 4.84043C28.9297 5.24666 28.4703 5.67484 28.0328 6.10303C27.7375 5.81757 27.4312 5.53212 27.125 5.25764C22.1484 0.822063 17.1609 -1.04439 14.175 0.701292C11.3094 2.37012 10.4563 7.32172 11.6594 13.514C11.7797 14.1288 11.9109 14.7326 12.0641 15.3475C11.3641 15.5451 10.675 15.7647 10.0297 15.9952C4.18906 18.0264 0 21.2323 0 24.548C0 27.9735 4.4625 31.41 10.5328 33.496C11.025 33.6607 11.5172 33.8254 12.0203 33.9681C11.8562 34.6268 11.7141 35.2746 11.5828 35.9443C10.4344 42.0378 11.3313 46.8686 14.1969 48.5264C17.15 50.2392 22.1156 48.4825 26.95 44.2336C27.3328 43.8932 27.7156 43.5419 28.0984 43.1686C28.5797 43.6407 29.0828 44.0909 29.5859 44.53C34.2672 48.5704 38.8938 50.2062 41.7484 48.5484C44.7016 46.8357 45.6641 41.6425 44.4172 35.3185C44.3188 34.8354 44.2094 34.3414 44.0891 33.8363C44.4391 33.7375 44.7781 33.6277 45.1172 33.518C51.4281 31.4209 56 28.0284 56 24.548C56 21.2213 51.6906 17.9934 45.7406 15.9403ZM30.9422 6.61905C35.0109 3.06181 38.8063 1.66746 40.5344 2.66656C42.3828 3.73154 43.0938 8.03536 41.9344 13.6896C41.8578 14.0629 41.7812 14.4252 41.6828 14.7875C39.2547 14.2386 36.7937 13.8433 34.3219 13.6237C32.9 11.5816 31.3469 9.62734 29.6625 7.79382C30.0891 7.38759 30.5047 7.00332 30.9422 6.61905ZM18.2875 30.2462C18.8453 31.2014 19.4141 32.1565 20.0156 33.0898C18.3094 32.9031 16.6141 32.6286 14.9406 32.2663C15.4219 30.6853 16.0234 29.0494 16.7234 27.3806C17.2266 28.3468 17.7406 29.302 18.2875 30.2462ZM14.9734 17.0383C16.5484 16.6869 18.2219 16.4015 19.9609 16.1819C19.3813 17.0932 18.8125 18.0264 18.2766 18.9706C17.7406 19.9038 17.2156 20.859 16.7234 21.8252C16.0344 20.1893 15.4547 18.5863 14.9734 17.0383ZM17.9703 24.6029C18.6922 23.0878 19.4797 21.6056 20.3109 20.1454C21.1422 18.6851 22.0391 17.2688 22.9797 15.8745C24.6203 15.7537 26.2938 15.6878 28 15.6878C29.7062 15.6878 31.3906 15.7537 33.0203 15.8745C33.95 17.2578 34.8359 18.6742 35.6781 20.1234C36.5203 21.5726 37.3078 23.0548 38.0516 24.559C37.3187 26.0741 36.5312 27.5673 35.6891 29.0385C34.8578 30.4987 33.9719 31.915 33.0422 33.3203C31.4125 33.4411 29.7172 33.496 28 33.496C26.2828 33.496 24.6203 33.4411 23.0125 33.3423C22.0609 31.9479 21.1641 30.5206 20.3219 29.0604C19.4797 27.6002 18.7031 26.118 17.9703 24.6029ZM37.7234 30.2242C38.2812 29.258 38.8063 28.2809 39.3203 27.2928C40.0203 28.8848 40.6328 30.4987 41.1688 32.1565C39.4734 32.5408 37.7562 32.8372 36.0281 33.0349C36.6187 32.1126 37.1766 31.1684 37.7234 30.2242ZM39.2984 21.8252C38.7844 20.859 38.2594 19.8928 37.7125 18.9486C37.1766 18.0154 36.6188 17.0932 36.0391 16.1819C37.8 16.4015 39.4844 16.6979 41.0594 17.0602C40.5562 18.6851 39.9656 20.2661 39.2984 21.8252ZM28.0219 9.47363C29.1703 10.7253 30.2531 12.0427 31.2594 13.4042C29.0937 13.3053 26.9172 13.3053 24.7516 13.4042C25.8234 11.9879 26.9281 10.6704 28.0219 9.47363ZM15.3344 2.74341C17.1719 1.66746 21.2516 3.20454 25.55 7.02528C25.8234 7.26682 26.0969 7.53032 26.3813 7.79382C24.6859 9.62734 23.1219 11.5816 21.6891 13.6237C19.2172 13.8433 16.7672 14.2276 14.3391 14.7656C14.1969 14.2056 14.0766 13.6347 13.9563 13.0638C12.9281 7.7499 13.6062 3.74252 15.3344 2.74341ZM12.6547 31.6844C12.1953 31.5527 11.7469 31.41 11.2984 31.2562C8.96875 30.5206 6.32188 29.3569 4.40781 27.8308C3.30312 27.0622 2.55938 25.8765 2.35156 24.548C2.35156 22.5388 5.80781 19.9697 10.7953 18.224C11.4187 18.0044 12.0531 17.8068 12.6875 17.6202C13.4312 20.0026 14.3281 22.3412 15.3672 24.6029C14.3172 26.8975 13.4094 29.269 12.6547 31.6844ZM25.4078 42.444C23.6031 44.1018 21.5141 45.4193 19.2391 46.3196C18.025 46.9015 16.625 46.9564 15.3781 46.4624C13.6391 45.4523 12.9172 41.5766 13.9016 36.3615C14.0219 35.7467 14.1531 35.1319 14.3063 34.528C16.7563 35.055 19.2281 35.4173 21.7328 35.604C23.1766 37.6571 24.7625 39.6224 26.4578 41.4669C26.1078 41.8072 25.7578 42.1366 25.4078 42.444ZM28.0875 39.7761C26.9719 38.5684 25.8563 37.2289 24.7734 35.7906C25.8234 35.8345 26.9062 35.8565 28 35.8565C29.1266 35.8565 30.2312 35.8345 31.325 35.7797C30.3187 37.174 29.2359 38.5025 28.0875 39.7761ZM42.3828 43.0698C42.2844 44.4093 41.6281 45.6609 40.5781 46.5063C38.8391 47.5164 35.1313 46.1989 31.1281 42.7514C30.6688 42.3562 30.2094 41.928 29.7391 41.4888C31.4125 39.6333 32.9547 37.6681 34.3547 35.604C36.8594 35.3954 39.3531 35.0111 41.8141 34.4512C41.9234 34.9013 42.0219 35.3515 42.1094 35.7906C42.6453 38.1621 42.7328 40.6324 42.3828 43.0698ZM44.3734 31.2672C44.0672 31.366 43.7609 31.4649 43.4438 31.5527C42.6781 29.1592 41.7375 26.8207 40.6547 24.548C41.7047 22.3082 42.5906 20.0026 43.3344 17.6421C43.9031 17.8068 44.45 17.9825 44.975 18.1581C50.0719 19.9148 53.6484 22.5278 53.6484 24.526C53.6484 26.6779 49.8313 29.4557 44.3734 31.2672ZM28 29.6204C30.7672 29.6204 33.0094 27.3696 33.0094 24.5919C33.0094 21.8142 30.7672 19.5635 28 19.5635C25.2328 19.5635 22.9906 21.8142 22.9906 24.5919C22.9906 27.3696 25.2328 29.6204 28 29.6204Z" fill="#07EEFD"/>
</svg>
