<svg width="62" height="47" viewBox="0 0 62 47" fill="none" xmlns="http://www.w3.org/2000/svg">
<path d="M29.163 35.0644C29.134 35.1223 29.105 35.1687 29.163 35.0644V35.0644ZM53.2335 26.6586C51.2903 26.6579 49.3729 27.1042 47.6297 27.9629C47.0596 26.8132 46.4703 25.8083 46.3736 25.0547C46.2577 24.1755 46.1321 23.6537 46.2674 22.6103C46.4026 21.5668 47.0113 20.0885 47.0017 19.9822C46.992 19.8759 46.8664 19.3445 45.62 19.3349C44.3736 19.3252 43.3012 19.5764 43.1765 19.9049C42.9564 20.5053 42.7851 21.1224 42.6644 21.7503C42.4422 22.8808 40.1727 26.9194 38.8876 29.0257C38.4625 28.2045 38.105 27.4798 38.0277 26.9001C37.9118 26.0209 37.7862 25.4991 37.9214 24.4557C38.0567 23.4122 38.6654 21.9339 38.6558 21.8276C38.6461 21.7214 38.5205 21.19 37.2751 21.1803C36.0297 21.1706 34.9562 21.4218 34.8306 21.7503C34.705 22.0788 34.5698 22.8518 34.3185 23.5958C34.0673 24.3397 31.0441 31.0644 30.2528 32.8132C29.847 33.7021 29.4992 34.417 29.248 34.9001C29.2094 34.9774 29.1804 35.0257 29.1611 35.0644C29.19 35.0161 29.2094 34.9678 29.2094 34.9871C28.9968 35.4025 28.8712 35.6344 28.8712 35.6344V35.6441C28.7069 35.9533 28.5234 36.2335 28.4364 36.2335C28.3784 36.2335 28.2528 35.4219 28.4654 34.3108C28.9195 31.9726 29.992 28.3397 29.9823 28.2141C29.9726 28.1465 30.1852 27.5185 29.277 27.1803C28.3978 26.8615 28.0789 27.3929 28.0016 27.3929C27.9243 27.3929 27.8664 27.5861 27.8664 27.5861C27.8664 27.5861 28.8422 23.4895 25.9929 23.4895C24.2151 23.4895 21.7417 25.4412 20.5263 27.2093C19.763 27.6248 18.1108 28.5233 16.3717 29.4798C15.705 29.847 15.019 30.2238 14.3717 30.5813C14.3233 30.533 14.2847 30.4847 14.2364 30.4363C10.7784 26.7455 4.39386 24.1368 4.6644 19.1803C4.76101 17.3735 5.38904 12.6296 16.9417 6.8711C26.4103 2.15612 33.9804 3.4508 35.2838 6.33003C37.1582 10.4363 31.2364 18.0788 21.4036 19.1803C17.6557 19.5958 15.6857 18.1465 15.1929 17.6054C14.6808 17.0354 14.6035 17.0064 14.4103 17.1127C14.0915 17.2866 14.2944 17.789 14.4103 18.0885C14.7002 18.8518 15.9079 20.2045 17.9649 20.8808C19.7717 21.4702 24.1659 21.7987 29.4789 19.7407C35.448 17.4412 40.0944 11.0354 38.7321 5.67303C37.3446 0.223745 28.3089 -1.5637 19.7649 1.47012C14.6741 3.27689 9.16875 6.11747 5.20836 9.81796C0.504004 14.2238 -0.248654 18.0595 0.0605254 19.6634C1.16101 25.3542 9.0045 29.0644 12.1436 31.8083C11.989 31.8953 11.8441 31.9726 11.7089 32.0499C10.1349 32.8325 4.15522 35.9629 2.6586 39.2673C0.967773 43.0161 2.93879 45.7021 4.23251 46.0692C8.2702 47.19 12.4045 45.1707 14.6258 41.8567C16.847 38.5426 16.5775 34.2141 15.5533 32.2431C15.5436 32.2141 15.5243 32.1948 15.5147 32.1658C15.9205 31.9243 16.3359 31.6827 16.7514 31.4412C17.5523 30.9678 18.3349 30.533 19.0209 30.1562C18.6345 31.1996 18.3543 32.4557 18.2093 34.2721C18.0354 36.3977 18.9147 39.1513 20.0548 40.2335C20.5572 40.7069 21.1649 40.7166 21.5417 40.7166C22.8751 40.7166 23.4741 39.6151 24.1398 38.3011C24.961 36.6972 25.6857 34.8325 25.6857 34.8325C25.6857 34.8325 24.7775 39.876 27.2606 39.876C28.1678 39.876 29.076 38.7069 29.4828 38.1079V38.1175C29.4828 38.1175 29.5021 38.0789 29.5504 38.0016C29.647 37.8567 29.6954 37.7697 29.6954 37.7697V37.7407C30.0625 37.1127 30.8644 35.6731 32.0712 33.2963C33.6364 30.2238 35.133 26.388 35.133 26.388C35.2777 27.2312 35.4778 28.064 35.7321 28.8808C36.0026 29.7987 36.5727 30.8035 37.0268 31.7794C36.6596 32.2818 36.4374 32.5716 36.4374 32.5716C36.4381 32.579 36.4415 32.5859 36.4471 32.5909C36.1572 32.9774 35.8287 33.3929 35.4905 33.7987C34.2548 35.2673 32.7852 36.9484 32.592 37.4315C32.3601 38.0016 32.4181 38.4267 32.8625 38.7552C33.191 39.0064 33.7707 39.0451 34.3784 38.9967C35.4896 38.9195 36.2722 38.6489 36.649 38.475C37.3437 38.2259 38.0002 37.8812 38.5997 37.4509C39.8074 36.562 40.5417 35.2866 40.4741 33.6054C40.4355 32.6779 40.1359 31.7504 39.7688 30.8808C39.8751 30.7262 39.991 30.562 40.0973 30.3977C42.0094 27.6054 43.4876 24.5407 43.4876 24.5407C43.6323 25.3839 43.8324 26.2166 44.0867 27.0334C44.3186 27.8161 44.7717 28.676 45.1872 29.5165C43.391 30.9755 42.2799 32.6663 41.8934 33.7774C41.1785 35.8354 41.7388 36.7629 42.792 36.9755C43.2654 37.0721 43.9417 36.8499 44.4442 36.6373C45.1903 36.3888 45.8939 36.0271 46.5302 35.5649C47.7379 34.676 48.906 33.4296 48.8287 31.7388C48.7997 30.9755 48.5872 30.2122 48.307 29.4779C49.8239 28.8402 51.7939 28.4924 54.306 28.7822C59.6857 29.4103 60.7389 32.7726 60.536 34.1736C60.3331 35.5745 59.2026 36.3571 58.8258 36.589C58.449 36.8209 58.3331 36.9079 58.3621 37.0818C58.4104 37.333 58.5843 37.3233 58.9031 37.2653C59.3476 37.1881 61.7234 36.1252 61.8297 33.5262C61.9843 30.2412 58.8258 26.6276 53.2307 26.6566L53.2335 26.6586ZM11.7668 40.6393C9.99001 42.5813 7.49725 43.3156 6.42575 42.6972C5.27599 42.0286 5.7301 39.1707 7.92237 37.1011C9.25571 35.8451 10.9746 34.6856 12.1146 33.9707C12.3755 33.8161 12.7523 33.5842 13.2161 33.304C13.2934 33.2557 13.332 33.2364 13.332 33.2364C13.419 33.1784 13.5156 33.1301 13.6122 33.0721C14.4132 36.0093 13.6412 38.5987 11.7668 40.6373V40.6393ZM24.7485 31.8083C24.1301 33.3252 22.8267 37.19 22.0345 36.9871C21.3581 36.8132 20.9427 33.8663 21.8992 30.9678C22.3823 29.5088 23.4065 27.7697 24.0151 27.0934C24.99 26.0016 26.0625 25.6537 26.3137 26.0885C26.6519 26.6586 25.135 30.8615 24.7485 31.8083ZM35.4731 36.9291C35.2123 37.0644 34.9707 37.1513 34.8548 37.0837C34.7678 37.0354 34.9611 36.8518 34.9611 36.8518C34.9611 36.8518 36.3041 35.4122 36.8355 34.7552C37.1446 34.3687 37.5021 33.9146 37.8876 33.4122C37.8876 33.4605 37.8973 33.5088 37.8973 33.5668C37.8847 35.2963 36.2239 36.4653 35.4702 36.9291H35.4731ZM43.7417 35.0451C43.5485 34.9098 43.5775 34.4557 44.2248 33.045C44.476 32.4943 45.0548 31.5668 46.0606 30.6779C46.1744 31.0144 46.2363 31.3662 46.2442 31.7214C46.2345 33.8953 44.6789 34.7069 43.7427 35.0451H43.7417Z" fill="#D9320E"/>
</svg>
